<svg viewBox="0 0 900 618" xmlns="http://www.w3.org/2000/svg"><defs>
    <linearGradient id="bg" x1="0%" y1="0%" x2="100%" y2="100%">
      <stop offset="0%" stop-color="#03050a"/>
      <stop offset="35%" stop-color="#080e22"/>
      <stop offset="70%" stop-color="#0d1730"/>
      <stop offset="100%" stop-color="#060a18"/>
    </linearGradient>
    <radialGradient id="glow" cx="22%" cy="0%" r="70%">
      <stop offset="0%" stop-color="#173a6e" stop-opacity="0.45"/>
      <stop offset="100%" stop-color="#173a6e" stop-opacity="0"/>
    </radialGradient>
    <filter id="softGlow" x="-60%" y="-60%" width="220%" height="220%">
      <feGaussianBlur stdDeviation="4" result="blur"/>
      <feMerge>
        <feMergeNode in="blur"/>
        <feMergeNode in="SourceGraphic"/>
      </feMerge>
    </filter>
  </defs><rect x="1.5" y="1.5" width="897" height="615" rx="20" fill="url(#bg)" stroke="#1b3358" stroke-width="1.5"/><rect x="1.5" y="1.5" width="897" height="615" rx="20" fill="url(#glow)"/><circle cx="159.2" cy="420.2" r="0.97" fill="#dceeff" opacity="0.24"/><circle cx="203.5" cy="480.5" r="1.13" fill="#dceeff" opacity="0.25"/><circle cx="454.4" cy="154.3" r="0.4" fill="#dceeff" opacity="0.22"/><circle cx="524.1" cy="56.6" r="1.11" fill="#dceeff" opacity="0.18"/><circle cx="218.0" cy="40.8" r="1.3" fill="#dceeff" opacity="0.31"/><circle cx="775.5" cy="376.9" r="0.43" fill="#dceeff" opacity="0.21"/><circle cx="447.9" cy="83.9" r="1.26" fill="#dceeff" opacity="0.22"/><circle cx="150.4" cy="495.1" r="0.51" fill="#dceeff" opacity="0.36"/><circle cx="409.3" cy="339.5" r="0.71" fill="#dceeff" opacity="0.25"/><circle cx="178.2" cy="37.8" r="1.18" fill="#dceeff" opacity="0.18"/><circle cx="693.3" cy="138.2" r="1.27" fill="#dceeff" opacity="0.35"/><circle cx="671.2" cy="463.0" r="0.92" fill="#dceeff" opacity="0.31"/><circle cx="122.3" cy="295.1" r="1.14" fill="#dceeff" opacity="0.17"/><circle cx="817.3" cy="536.1" r="0.77" fill="#dceeff" opacity="0.21"/><circle cx="407.7" cy="242.1" r="1.3" fill="#dceeff" opacity="0.22"/><circle cx="39.3" cy="70.7" r="1.05" fill="#dceeff" opacity="0.38"/><circle cx="446.5" cy="304.0" r="0.9" fill="#dceeff" opacity="0.31"/><circle cx="208.7" cy="372.8" r="0.9" fill="#dceeff" opacity="0.28"/><circle cx="172.8" cy="115.7" r="0.71" fill="#dceeff" opacity="0.36"/><circle cx="316.9" cy="366.0" r="0.68" fill="#dceeff" opacity="0.15"/><circle cx="73.0" cy="492.8" r="1.1" fill="#dceeff" opacity="0.22"/><circle cx="609.1" cy="412.1" r="1.21" fill="#dceeff" opacity="0.37"/><circle cx="369.3" cy="595.6" r="1.27" fill="#dceeff" opacity="0.27"/><circle cx="782.6" cy="303.7" r="0.74" fill="#dceeff" opacity="0.18"/><circle cx="776.5" cy="111.1" r="0.46" fill="#dceeff" opacity="0.33"/><circle cx="687.8" cy="299.1" r="1.15" fill="#dceeff" opacity="0.13"/><circle cx="239.9" cy="185.9" r="0.78" fill="#dceeff" opacity="0.16"/><circle cx="76.3" cy="214.1" r="1.21" fill="#dceeff" opacity="0.38"/><circle cx="663.4" cy="296.7" r="0.63" fill="#dceeff" opacity="0.37"/><circle cx="472.2" cy="443.0" r="0.43" fill="#dceeff" opacity="0.18"/><circle cx="743.6" cy="482.0" r="1.19" fill="#dceeff" opacity="0.28"/><circle cx="385.8" cy="356.5" r="1.16" fill="#dceeff" opacity="0.2"/><circle cx="479.8" cy="177.7" r="1.09" fill="#dceeff" opacity="0.12"/><circle cx="610.8" cy="575.0" r="0.42" fill="#dceeff" opacity="0.27"/><circle cx="574.9" cy="515.1" r="0.93" fill="#dceeff" opacity="0.19"/><circle cx="368.1" cy="577.8" r="1.22" fill="#dceeff" opacity="0.15"/><circle cx="98.3" cy="71.0" r="0.42" fill="#dceeff" opacity="0.24"/><circle cx="138.2" cy="524.3" r="0.99" fill="#dceeff" opacity="0.15"/><circle cx="745.4" cy="22.4" r="1.0" fill="#dceeff" opacity="0.5"><animate attributeName="opacity" values="0.15;0.9;0.15" dur="2.9s" begin="0.3s" repeatCount="indefinite"/></circle><circle cx="649.7" cy="23.8" r="1.17" fill="#dceeff" opacity="0.5"><animate attributeName="opacity" values="0.15;0.9;0.15" dur="3.6s" begin="0.1s" repeatCount="indefinite"/></circle><circle cx="791.9" cy="36.7" r="1.22" fill="#dceeff" opacity="0.5"><animate attributeName="opacity" values="0.15;0.9;0.15" dur="4.1s" begin="0.0s" repeatCount="indefinite"/></circle><circle cx="725.2" cy="15.7" r="1.21" fill="#dceeff" opacity="0.5"><animate attributeName="opacity" values="0.15;0.9;0.15" dur="2.9s" begin="1.4s" repeatCount="indefinite"/></circle><text x="36" y="46" font-family="Trebuchet MS, Segoe UI, Arial, sans-serif" font-size="22" font-weight="800" fill="#4fc3f7" letter-spacing="1" filter="url(#softGlow)">// about me</text><line x1="36" y1="62" x2="864" y2="62" stroke="#1b3358" stroke-width="1.2"/><text x="40" y="122.0" font-family="Trebuchet MS, Segoe UI, Arial, sans-serif" font-size="21">🔭</text><text x="86" y="122.0" font-family="Trebuchet MS, Segoe UI, Arial, sans-serif" font-size="16.5"><tspan fill="#eaf6ff" font-weight="700">Currently working on</tspan><tspan fill="#5f7aa3">  —  </tspan><tspan fill="#94aed4">my thesis (SafeSeat) &amp; a few side projects</tspan></text><line x1="36" y1="144" x2="864" y2="144" stroke="#16213d" stroke-width="1"/><text x="40" y="178.0" font-family="Trebuchet MS, Segoe UI, Arial, sans-serif" font-size="21">🌱</text><text x="86" y="178.0" font-family="Trebuchet MS, Segoe UI, Arial, sans-serif" font-size="16.5"><tspan fill="#eaf6ff" font-weight="700">Currently learning</tspan><tspan fill="#5f7aa3">  —  </tspan><tspan fill="#94aed4">data science fundamentals, machine learning</tspan></text><line x1="36" y1="200" x2="864" y2="200" stroke="#16213d" stroke-width="1"/><text x="40" y="234.0" font-family="Trebuchet MS, Segoe UI, Arial, sans-serif" font-size="21">🤝</text><text x="86" y="234.0" font-family="Trebuchet MS, Segoe UI, Arial, sans-serif" font-size="16.5"><tspan fill="#eaf6ff" font-weight="700">Looking to collaborate on</tspan><tspan fill="#5f7aa3">  —  </tspan><tspan fill="#94aed4">full-stack web &amp; data analytics projects</tspan></text><line x1="36" y1="256" x2="864" y2="256" stroke="#16213d" stroke-width="1"/><text x="40" y="290.0" font-family="Trebuchet MS, Segoe UI, Arial, sans-serif" font-size="21">🆘</text><text x="86" y="290.0" font-family="Trebuchet MS, Segoe UI, Arial, sans-serif" font-size="16.5"><tspan fill="#eaf6ff" font-weight="700">Looking for help with</tspan><tspan fill="#5f7aa3">  —  </tspan><tspan fill="#94aed4">open — let me know!</tspan></text><line x1="36" y1="312" x2="864" y2="312" stroke="#16213d" stroke-width="1"/><text x="40" y="346.0" font-family="Trebuchet MS, Segoe UI, Arial, sans-serif" font-size="21">💬</text><text x="86" y="346.0" font-family="Trebuchet MS, Segoe UI, Arial, sans-serif" font-size="16.5"><tspan fill="#eaf6ff" font-weight="700">Ask me about</tspan><tspan fill="#5f7aa3">  —  </tspan><tspan fill="#94aed4">life, basketball, and code</tspan></text><line x1="36" y1="368" x2="864" y2="368" stroke="#16213d" stroke-width="1"/><text x="40" y="402.0" font-family="Trebuchet MS, Segoe UI, Arial, sans-serif" font-size="21">📫</text><text x="86" y="402.0" font-family="Trebuchet MS, Segoe UI, Arial, sans-serif" font-size="16.5"><tspan fill="#eaf6ff" font-weight="700">Reach me at</tspan><tspan fill="#5f7aa3">  —  </tspan><tspan fill="#94aed4">LinkedIn  ·  Gmail  ·  Portfolio</tspan></text><line x1="36" y1="424" x2="864" y2="424" stroke="#16213d" stroke-width="1"/><text x="40" y="458.0" font-family="Trebuchet MS, Segoe UI, Arial, sans-serif" font-size="21">🌈</text><text x="86" y="458.0" font-family="Trebuchet MS, Segoe UI, Arial, sans-serif" font-size="16.5"><tspan fill="#eaf6ff" font-weight="700">Pronouns</tspan><tspan fill="#5f7aa3">  —  </tspan><tspan fill="#94aed4">He / Him</tspan></text><line x1="36" y1="480" x2="864" y2="480" stroke="#16213d" stroke-width="1"/><text x="40" y="514.0" font-family="Trebuchet MS, Segoe UI, Arial, sans-serif" font-size="21">🎤</text><text x="86" y="514.0" font-family="Trebuchet MS, Segoe UI, Arial, sans-serif" font-size="16.5"><tspan fill="#eaf6ff" font-weight="700">Fun fact</tspan><tspan fill="#5f7aa3">  —  </tspan><tspan fill="#94aed4">die-hard Michael Jackson fan</tspan></text><line x1="36" y1="536" x2="864" y2="536" stroke="#16213d" stroke-width="1"/><text x="40" y="570.0" font-family="Trebuchet MS, Segoe UI, Arial, sans-serif" font-size="21">📍</text><text x="86" y="570.0" font-family="Trebuchet MS, Segoe UI, Arial, sans-serif" font-size="16.5"><tspan fill="#eaf6ff" font-weight="700">Based in</tspan><tspan fill="#5f7aa3">  —  </tspan><tspan fill="#94aed4">Lipa City, Batangas, Philippines</tspan></text></svg>
