<svg viewBox="0 0 900 564" xmlns="http://www.w3.org/2000/svg"><defs>
    <linearGradient id="bg" x1="0%" y1="0%" x2="100%" y2="100%">
      <stop offset="0%" stop-color="#03050a"/>
      <stop offset="35%" stop-color="#080e22"/>
      <stop offset="70%" stop-color="#0d1730"/>
      <stop offset="100%" stop-color="#060a18"/>
    </linearGradient>
    <radialGradient id="glow" cx="22%" cy="0%" r="70%">
      <stop offset="0%" stop-color="#173a6e" stop-opacity="0.45"/>
      <stop offset="100%" stop-color="#173a6e" stop-opacity="0"/>
    </radialGradient>
    <filter id="softGlow" x="-60%" y="-60%" width="220%" height="220%">
      <feGaussianBlur stdDeviation="4" result="blur"/>
      <feMerge>
        <feMergeNode in="blur"/>
        <feMergeNode in="SourceGraphic"/>
      </feMerge>
    </filter>
    <filter id="greenGlow" x="-80%" y="-80%" width="260%" height="260%">
      <feGaussianBlur stdDeviation="3" result="blur"/>
      <feMerge>
        <feMergeNode in="blur"/>
        <feMergeNode in="SourceGraphic"/>
      </feMerge>
    </filter>
  </defs><rect x="1.5" y="1.5" width="897" height="561" rx="20" fill="url(#bg)" stroke="#1b3358" stroke-width="1.5"/><rect x="1.5" y="1.5" width="897" height="561" rx="20" fill="url(#glow)"/><circle cx="511.0" cy="352.3" r="1.14" fill="#dceeff" opacity="0.17"/><circle cx="581.8" cy="489.9" r="1.22" fill="#dceeff" opacity="0.15"/><circle cx="581.7" cy="344.3" r="0.85" fill="#dceeff" opacity="0.34"/><circle cx="474.5" cy="252.9" r="1.25" fill="#dceeff" opacity="0.26"/><circle cx="277.5" cy="180.5" r="0.85" fill="#dceeff" opacity="0.11"/><circle cx="543.4" cy="407.5" r="0.78" fill="#dceeff" opacity="0.31"/><circle cx="821.5" cy="311.6" r="1.01" fill="#dceeff" opacity="0.13"/><circle cx="64.6" cy="537.4" r="0.66" fill="#dceeff" opacity="0.15"/><circle cx="794.3" cy="414.9" r="0.51" fill="#dceeff" opacity="0.18"/><circle cx="226.6" cy="161.1" r="0.41" fill="#dceeff" opacity="0.23"/><circle cx="280.2" cy="225.7" r="0.57" fill="#dceeff" opacity="0.13"/><circle cx="44.6" cy="480.3" r="1.07" fill="#dceeff" opacity="0.24"/><circle cx="123.5" cy="95.2" r="0.51" fill="#dceeff" opacity="0.18"/><circle cx="66.0" cy="162.5" r="0.58" fill="#dceeff" opacity="0.15"/><circle cx="583.4" cy="259.5" r="0.83" fill="#dceeff" opacity="0.19"/><circle cx="483.9" cy="433.7" r="0.68" fill="#dceeff" opacity="0.12"/><circle cx="433.7" cy="217.7" r="1.1" fill="#dceeff" opacity="0.13"/><circle cx="773.5" cy="23.9" r="0.89" fill="#dceeff" opacity="0.21"/><circle cx="289.7" cy="488.9" r="1.03" fill="#dceeff" opacity="0.14"/><circle cx="445.6" cy="341.7" r="0.43" fill="#dceeff" opacity="0.12"/><circle cx="538.3" cy="404.1" r="0.82" fill="#dceeff" opacity="0.21"/><circle cx="456.0" cy="154.6" r="1.19" fill="#dceeff" opacity="0.34"/><circle cx="434.3" cy="26.9" r="0.76" fill="#dceeff" opacity="0.3"/><circle cx="298.1" cy="72.2" r="0.57" fill="#dceeff" opacity="0.28"/><circle cx="555.9" cy="168.2" r="0.96" fill="#dceeff" opacity="0.29"/><circle cx="854.6" cy="458.3" r="0.79" fill="#dceeff" opacity="0.3"/><circle cx="819.3" cy="478.3" r="1.08" fill="#dceeff" opacity="0.25"/><circle cx="459.9" cy="468.3" r="0.96" fill="#dceeff" opacity="0.28"/><circle cx="213.8" cy="65.0" r="0.64" fill="#dceeff" opacity="0.25"/><circle cx="513.4" cy="121.7" r="0.57" fill="#dceeff" opacity="0.34"/><circle cx="78.1" cy="508.8" r="1.09" fill="#dceeff" opacity="0.24"/><circle cx="880.2" cy="377.6" r="0.41" fill="#dceeff" opacity="0.33"/><circle cx="374.8" cy="503.6" r="1.13" fill="#dceeff" opacity="0.13"/><circle cx="50.4" cy="27.1" r="1.1" fill="#dceeff" opacity="0.3"/><circle cx="661.6" cy="16.9" r="0.89" fill="#dceeff" opacity="0.5"><animate attributeName="opacity" values="0.15;0.9;0.15" dur="4.1s" begin="1.5s" repeatCount="indefinite"/></circle><circle cx="834.1" cy="39.2" r="1.2" fill="#dceeff" opacity="0.5"><animate attributeName="opacity" values="0.15;0.9;0.15" dur="4.2s" begin="0.0s" repeatCount="indefinite"/></circle><circle cx="601.7" cy="36.4" r="1.09" fill="#dceeff" opacity="0.5"><animate attributeName="opacity" values="0.15;0.9;0.15" dur="3.2s" begin="0.3s" repeatCount="indefinite"/></circle><circle cx="689.8" cy="22.8" r="1.0" fill="#dceeff" opacity="0.5"><animate attributeName="opacity" values="0.15;0.9;0.15" dur="3.4s" begin="0.4s" repeatCount="indefinite"/></circle><text x="36" y="46" font-family="Trebuchet MS, Segoe UI, Arial, sans-serif" font-size="22" font-weight="800" fill="#4fc3f7" letter-spacing="1" filter="url(#softGlow)">// certifications</text><line x1="36" y1="62" x2="864" y2="62" stroke="#1b3358" stroke-width="1.2"/><circle cx="52" cy="113.0" r="12" fill="none" stroke="#2ee6a6" stroke-width="1.6" opacity="0.85"/><text x="52" y="117.5" font-family="Trebuchet MS, Segoe UI, Arial, sans-serif" font-size="12" fill="#2ee6a6" text-anchor="middle" font-weight="700">&#10003;</text><text x="78" y="118.5" font-family="Trebuchet MS, Segoe UI, Arial, sans-serif" font-size="16.5" fill="#eaf6ff" font-weight="600">Introduction to Python for Developers</text><rect x="772.0" y="101.0" width="92" height="24" rx="12" fill="#0d2a1f" stroke="#2ee6a6" stroke-width="1" opacity="0.9"/><text x="818.0" y="117.2" font-family="Trebuchet MS, Segoe UI, Arial, sans-serif" font-size="10.5" fill="#4fe8ac" text-anchor="middle" font-weight="800" letter-spacing="0.5" filter="url(#greenGlow)">DATACAMP</text><line x1="36" y1="138" x2="864" y2="138" stroke="#16213d" stroke-width="1"/><circle cx="52" cy="163.0" r="12" fill="none" stroke="#2ee6a6" stroke-width="1.6" opacity="0.85"/><text x="52" y="167.5" font-family="Trebuchet MS, Segoe UI, Arial, sans-serif" font-size="12" fill="#2ee6a6" text-anchor="middle" font-weight="700">&#10003;</text><text x="78" y="168.5" font-family="Trebuchet MS, Segoe UI, Arial, sans-serif" font-size="16.5" fill="#eaf6ff" font-weight="600">Introduction to Python</text><rect x="772.0" y="151.0" width="92" height="24" rx="12" fill="#0d2a1f" stroke="#2ee6a6" stroke-width="1" opacity="0.9"/><text x="818.0" y="167.2" font-family="Trebuchet MS, Segoe UI, Arial, sans-serif" font-size="10.5" fill="#4fe8ac" text-anchor="middle" font-weight="800" letter-spacing="0.5" filter="url(#greenGlow)">DATACAMP</text><line x1="36" y1="188" x2="864" y2="188" stroke="#16213d" stroke-width="1"/><circle cx="52" cy="213.0" r="12" fill="none" stroke="#2ee6a6" stroke-width="1.6" opacity="0.85"/><text x="52" y="217.5" font-family="Trebuchet MS, Segoe UI, Arial, sans-serif" font-size="12" fill="#2ee6a6" text-anchor="middle" font-weight="700">&#10003;</text><text x="78" y="218.5" font-family="Trebuchet MS, Segoe UI, Arial, sans-serif" font-size="16.5" fill="#eaf6ff" font-weight="600">Intermediate Python</text><rect x="772.0" y="201.0" width="92" height="24" rx="12" fill="#0d2a1f" stroke="#2ee6a6" stroke-width="1" opacity="0.9"/><text x="818.0" y="217.2" font-family="Trebuchet MS, Segoe UI, Arial, sans-serif" font-size="10.5" fill="#4fe8ac" text-anchor="middle" font-weight="800" letter-spacing="0.5" filter="url(#greenGlow)">DATACAMP</text><line x1="36" y1="238" x2="864" y2="238" stroke="#16213d" stroke-width="1"/><circle cx="52" cy="263.0" r="12" fill="none" stroke="#2ee6a6" stroke-width="1.6" opacity="0.85"/><text x="52" y="267.5" font-family="Trebuchet MS, Segoe UI, Arial, sans-serif" font-size="12" fill="#2ee6a6" text-anchor="middle" font-weight="700">&#10003;</text><text x="78" y="268.5" font-family="Trebuchet MS, Segoe UI, Arial, sans-serif" font-size="16.5" fill="#eaf6ff" font-weight="600">Data Manipulation with pandas</text><rect x="772.0" y="251.0" width="92" height="24" rx="12" fill="#0d2a1f" stroke="#2ee6a6" stroke-width="1" opacity="0.9"/><text x="818.0" y="267.2" font-family="Trebuchet MS, Segoe UI, Arial, sans-serif" font-size="10.5" fill="#4fe8ac" text-anchor="middle" font-weight="800" letter-spacing="0.5" filter="url(#greenGlow)">DATACAMP</text><line x1="36" y1="288" x2="864" y2="288" stroke="#16213d" stroke-width="1"/><circle cx="52" cy="313.0" r="12" fill="none" stroke="#2ee6a6" stroke-width="1.6" opacity="0.85"/><text x="52" y="317.5" font-family="Trebuchet MS, Segoe UI, Arial, sans-serif" font-size="12" fill="#2ee6a6" text-anchor="middle" font-weight="700">&#10003;</text><text x="78" y="318.5" font-family="Trebuchet MS, Segoe UI, Arial, sans-serif" font-size="16.5" fill="#eaf6ff" font-weight="600">Introduction to R</text><rect x="772.0" y="301.0" width="92" height="24" rx="12" fill="#0d2a1f" stroke="#2ee6a6" stroke-width="1" opacity="0.9"/><text x="818.0" y="317.2" font-family="Trebuchet MS, Segoe UI, Arial, sans-serif" font-size="10.5" fill="#4fe8ac" text-anchor="middle" font-weight="800" letter-spacing="0.5" filter="url(#greenGlow)">DATACAMP</text><line x1="36" y1="338" x2="864" y2="338" stroke="#16213d" stroke-width="1"/><circle cx="52" cy="363.0" r="12" fill="none" stroke="#2ee6a6" stroke-width="1.6" opacity="0.85"/><text x="52" y="367.5" font-family="Trebuchet MS, Segoe UI, Arial, sans-serif" font-size="12" fill="#2ee6a6" text-anchor="middle" font-weight="700">&#10003;</text><text x="78" y="368.5" font-family="Trebuchet MS, Segoe UI, Arial, sans-serif" font-size="16.5" fill="#eaf6ff" font-weight="600">Intermediate R</text><rect x="772.0" y="351.0" width="92" height="24" rx="12" fill="#0d2a1f" stroke="#2ee6a6" stroke-width="1" opacity="0.9"/><text x="818.0" y="367.2" font-family="Trebuchet MS, Segoe UI, Arial, sans-serif" font-size="10.5" fill="#4fe8ac" text-anchor="middle" font-weight="800" letter-spacing="0.5" filter="url(#greenGlow)">DATACAMP</text><line x1="36" y1="388" x2="864" y2="388" stroke="#16213d" stroke-width="1"/><circle cx="52" cy="413.0" r="12" fill="none" stroke="#2ee6a6" stroke-width="1.6" opacity="0.85"/><text x="52" y="417.5" font-family="Trebuchet MS, Segoe UI, Arial, sans-serif" font-size="12" fill="#2ee6a6" text-anchor="middle" font-weight="700">&#10003;</text><text x="78" y="418.5" font-family="Trebuchet MS, Segoe UI, Arial, sans-serif" font-size="16.5" fill="#eaf6ff" font-weight="600">Introduction to the Tidyverse</text><rect x="772.0" y="401.0" width="92" height="24" rx="12" fill="#0d2a1f" stroke="#2ee6a6" stroke-width="1" opacity="0.9"/><text x="818.0" y="417.2" font-family="Trebuchet MS, Segoe UI, Arial, sans-serif" font-size="10.5" fill="#4fe8ac" text-anchor="middle" font-weight="800" letter-spacing="0.5" filter="url(#greenGlow)">DATACAMP</text><line x1="36" y1="438" x2="864" y2="438" stroke="#16213d" stroke-width="1"/><circle cx="52" cy="463.0" r="12" fill="none" stroke="#2ee6a6" stroke-width="1.6" opacity="0.85"/><text x="52" y="467.5" font-family="Trebuchet MS, Segoe UI, Arial, sans-serif" font-size="12" fill="#2ee6a6" text-anchor="middle" font-weight="700">&#10003;</text><text x="78" y="468.5" font-family="Trebuchet MS, Segoe UI, Arial, sans-serif" font-size="16.5" fill="#eaf6ff" font-weight="600">Data Manipulation with dplyr</text><rect x="772.0" y="451.0" width="92" height="24" rx="12" fill="#0d2a1f" stroke="#2ee6a6" stroke-width="1" opacity="0.9"/><text x="818.0" y="467.2" font-family="Trebuchet MS, Segoe UI, Arial, sans-serif" font-size="10.5" fill="#4fe8ac" text-anchor="middle" font-weight="800" letter-spacing="0.5" filter="url(#greenGlow)">DATACAMP</text><line x1="36" y1="488" x2="864" y2="488" stroke="#16213d" stroke-width="1"/><circle cx="52" cy="513.0" r="12" fill="none" stroke="#2ee6a6" stroke-width="1.6" opacity="0.85"/><text x="52" y="517.5" font-family="Trebuchet MS, Segoe UI, Arial, sans-serif" font-size="12" fill="#2ee6a6" text-anchor="middle" font-weight="700">&#10003;</text><text x="78" y="518.5" font-family="Trebuchet MS, Segoe UI, Arial, sans-serif" font-size="16.5" fill="#eaf6ff" font-weight="600">Introduction to Git</text><rect x="772.0" y="501.0" width="92" height="24" rx="12" fill="#0d2a1f" stroke="#2ee6a6" stroke-width="1" opacity="0.9"/><text x="818.0" y="517.2" font-family="Trebuchet MS, Segoe UI, Arial, sans-serif" font-size="10.5" fill="#4fe8ac" text-anchor="middle" font-weight="800" letter-spacing="0.5" filter="url(#greenGlow)">DATACAMP</text></svg>
