<svg viewBox="0 0 1200 140" xmlns="http://www.w3.org/2000/svg"><defs>
    <linearGradient id="bg" x1="0%" y1="0%" x2="100%" y2="100%">
      <stop offset="0%" stop-color="#03050a"/>
      <stop offset="35%" stop-color="#080e22"/>
      <stop offset="70%" stop-color="#0d1730"/>
      <stop offset="100%" stop-color="#060a18"/>
    </linearGradient>
    <radialGradient id="glow" cx="50%" cy="38%" r="65%">
      <stop offset="0%" stop-color="#173a6e" stop-opacity="0.55"/>
      <stop offset="100%" stop-color="#173a6e" stop-opacity="0"/>
    </radialGradient>
    <linearGradient id="horizon" x1="0%" y1="0%" x2="0%" y2="100%">
      <stop offset="0%" stop-color="#0a1226"/>
      <stop offset="100%" stop-color="#040711"/>
    </linearGradient>
    <linearGradient id="shootLine" x1="0%" y1="0%" x2="100%" y2="0%">
      <stop offset="0%" stop-color="#bfe4ff" stop-opacity="0"/>
      <stop offset="100%" stop-color="#bfe4ff" stop-opacity="0.95"/>
    </linearGradient>
    <filter id="softGlow" x="-60%" y="-60%" width="220%" height="220%">
      <feGaussianBlur stdDeviation="5" result="blur"/>
      <feMerge>
        <feMergeNode in="blur"/>
        <feMergeNode in="SourceGraphic"/>
      </feMerge>
    </filter>
  </defs><rect width="1200" height="140" fill="url(#bg)"/><rect width="1200" height="140" fill="url(#glow)"/><path d="M 609.1 57.4 L 291.4 17.6 L 1121.0 69.5 L 1172.4 77.4 L 992.3 22.2" stroke="#3d6fa8" stroke-width="0.6" fill="none" opacity="0.3"/><circle cx="1077.1" cy="45.0" r="1.6" fill="#dceeff" opacity="0.55"/><circle cx="637.6" cy="54.1" r="0.52" fill="#dceeff" opacity="0.51"/><circle cx="226.1" cy="8.3" r="1.46" fill="#dceeff" opacity="0.35"/><circle cx="568.7" cy="71.8" r="1.17" fill="#dceeff" opacity="0.45"/><circle cx="621.7" cy="56.9" r="1.44" fill="#dceeff" opacity="0.31"/><circle cx="671.1" cy="29.9" r="0.83" fill="#dceeff" opacity="0.71"/><circle cx="609.1" cy="57.4" r="1.41" fill="#dceeff" opacity="0.8"><animate attributeName="opacity" values="0.2;1;0.2" dur="4.2s" begin="0.8s" repeatCount="indefinite"/></circle><circle cx="533.0" cy="61.9" r="1.11" fill="#dceeff" opacity="0.56"/><circle cx="827.4" cy="47.8" r="1.14" fill="#dceeff" opacity="0.54"/><circle cx="1121.0" cy="69.5" r="1.55" fill="#dceeff" opacity="0.82"><animate attributeName="opacity" values="0.2;1;0.2" dur="4.5s" begin="3.0s" repeatCount="indefinite"/></circle><circle cx="316.3" cy="57.2" r="1.63" fill="#dceeff" opacity="0.75"/><circle cx="171.8" cy="18.7" r="1.03" fill="#dceeff" opacity="0.29"/><circle cx="294.0" cy="14.4" r="1.3" fill="#dceeff" opacity="0.72"/><circle cx="1068.5" cy="21.6" r="1.36" fill="#dceeff" opacity="0.65"/><circle cx="178.7" cy="85.7" r="1.66" fill="#dceeff" opacity="0.38"><animate attributeName="opacity" values="0.1;0.68;0.1" dur="2.6s" begin="0.1s" repeatCount="indefinite"/></circle><circle cx="1134.0" cy="43.0" r="1.08" fill="#dceeff" opacity="0.84"/><circle cx="992.3" cy="22.2" r="1.02" fill="#dceeff" opacity="0.56"><animate attributeName="opacity" values="0.14;0.86;0.14" dur="3.8s" begin="2.9s" repeatCount="indefinite"/></circle><circle cx="410.2" cy="25.2" r="0.88" fill="#dceeff" opacity="0.68"/><circle cx="33.0" cy="56.8" r="1.03" fill="#dceeff" opacity="0.26"/><circle cx="401.2" cy="62.9" r="1.11" fill="#dceeff" opacity="0.29"/><circle cx="1172.4" cy="77.4" r="1.67" fill="#dceeff" opacity="0.31"/><circle cx="323.4" cy="11.5" r="1.43" fill="#dceeff" opacity="0.41"/><circle cx="162.9" cy="45.2" r="1.59" fill="#dceeff" opacity="0.74"/><circle cx="315.2" cy="21.1" r="1.6" fill="#dceeff" opacity="0.59"/><circle cx="836.5" cy="15.9" r="0.57" fill="#dceeff" opacity="0.66"><animate attributeName="opacity" values="0.17;0.96;0.17" dur="3.8s" begin="0.7s" repeatCount="indefinite"/></circle><circle cx="511.9" cy="14.4" r="1.63" fill="#dceeff" opacity="0.63"/><circle cx="955.9" cy="15.4" r="1.53" fill="#dceeff" opacity="0.29"/><circle cx="1028.1" cy="47.9" r="0.91" fill="#dceeff" opacity="0.58"/><circle cx="1103.5" cy="31.6" r="0.66" fill="#dceeff" opacity="0.57"/><circle cx="291.4" cy="17.6" r="0.69" fill="#dceeff" opacity="0.28"/><circle cx="609.1" cy="57.4" r="2.41" fill="#8fc8ff" opacity="0.5" filter="url(#softGlow)"/><circle cx="291.4" cy="17.6" r="1.69" fill="#8fc8ff" opacity="0.5" filter="url(#softGlow)"/><circle cx="1121.0" cy="69.5" r="2.55" fill="#8fc8ff" opacity="0.5" filter="url(#softGlow)"/><circle cx="1172.4" cy="77.4" r="2.67" fill="#8fc8ff" opacity="0.5" filter="url(#softGlow)"/><circle cx="992.3" cy="22.2" r="2.02" fill="#8fc8ff" opacity="0.5" filter="url(#softGlow)"/><line x1="80" y1="40" x2="180" y2="70" stroke="url(#shootLine)" stroke-width="2" stroke-linecap="round" opacity="0">
      <animate attributeName="x1" values="60;950;60" dur="7s" begin="1.2s" repeatCount="indefinite"/>
      <animate attributeName="x2" values="160;1050;160" dur="7s" begin="1.2s" repeatCount="indefinite"/>
      <animate attributeName="y1" values="30;59;30" dur="7s" begin="1.2s" repeatCount="indefinite"/>
      <animate attributeName="y2" values="60;70;60" dur="7s" begin="1.2s" repeatCount="indefinite"/>
      <animate attributeName="opacity" values="0;0.9;0" dur="7s" begin="1.2s" repeatCount="indefinite"/>
    </line><path d="M0,126 C144,102 324,132 504,108 C660,88 816,130 960,106 C1080,90 1152,122 1200,104 L1200,140 L0,140 Z" fill="url(#horizon)"/></svg>
