<svg viewBox="0 0 1200 300" xmlns="http://www.w3.org/2000/svg"><defs>
    <linearGradient id="bg" x1="0%" y1="0%" x2="100%" y2="100%">
      <stop offset="0%" stop-color="#03050a"/>
      <stop offset="35%" stop-color="#080e22"/>
      <stop offset="70%" stop-color="#0d1730"/>
      <stop offset="100%" stop-color="#060a18"/>
    </linearGradient>
    <radialGradient id="glow" cx="50%" cy="38%" r="65%">
      <stop offset="0%" stop-color="#173a6e" stop-opacity="0.55"/>
      <stop offset="100%" stop-color="#173a6e" stop-opacity="0"/>
    </radialGradient>
    <linearGradient id="horizon" x1="0%" y1="0%" x2="0%" y2="100%">
      <stop offset="0%" stop-color="#0a1226"/>
      <stop offset="100%" stop-color="#040711"/>
    </linearGradient>
    <linearGradient id="shootLine" x1="0%" y1="0%" x2="100%" y2="0%">
      <stop offset="0%" stop-color="#bfe4ff" stop-opacity="0"/>
      <stop offset="100%" stop-color="#bfe4ff" stop-opacity="0.95"/>
    </linearGradient>
    <filter id="softGlow" x="-60%" y="-60%" width="220%" height="220%">
      <feGaussianBlur stdDeviation="5" result="blur"/>
      <feMerge>
        <feMergeNode in="blur"/>
        <feMergeNode in="SourceGraphic"/>
      </feMerge>
    </filter>
  </defs><rect width="1200" height="300" fill="url(#bg)"/><rect width="1200" height="300" fill="url(#glow)"/><path d="M 812.9 98.6 L 650.9 13.7 L 402.4 177.8 L 37.3 209.6 L 473.0 92.6" stroke="#3d6fa8" stroke-width="0.6" fill="none" opacity="0.3"/><circle cx="392.1" cy="40.0" r="1.28" fill="#dceeff" opacity="0.29"><animate attributeName="opacity" values="0.07;0.59;0.07" dur="4.1s" begin="1.6s" repeatCount="indefinite"/></circle><circle cx="642.3" cy="85.5" r="0.57" fill="#dceeff" opacity="0.55"><animate attributeName="opacity" values="0.14;0.85;0.14" dur="4.8s" begin="1.3s" repeatCount="indefinite"/></circle><circle cx="54.2" cy="99.9" r="0.58" fill="#dceeff" opacity="0.3"/><circle cx="510.9" cy="183.3" r="0.65" fill="#dceeff" opacity="0.38"/><circle cx="750.4" cy="208.9" r="1.19" fill="#dceeff" opacity="0.49"/><circle cx="1162.0" cy="17.9" r="1.53" fill="#dceeff" opacity="0.42"/><circle cx="180.2" cy="33.0" r="0.87" fill="#dceeff" opacity="0.74"/><circle cx="223.3" cy="131.3" r="1.27" fill="#dceeff" opacity="0.47"/><circle cx="656.3" cy="21.3" r="0.57" fill="#dceeff" opacity="0.37"><animate attributeName="opacity" values="0.09;0.67;0.09" dur="4.7s" begin="2.5s" repeatCount="indefinite"/></circle><circle cx="812.9" cy="98.6" r="0.88" fill="#dceeff" opacity="0.6"><animate attributeName="opacity" values="0.15;0.9;0.15" dur="3.0s" begin="0.8s" repeatCount="indefinite"/></circle><circle cx="544.8" cy="71.6" r="1.45" fill="#dceeff" opacity="0.67"/><circle cx="298.0" cy="129.8" r="1.13" fill="#dceeff" opacity="0.78"/><circle cx="870.7" cy="69.0" r="1.68" fill="#dceeff" opacity="0.32"/><circle cx="503.4" cy="168.5" r="0.68" fill="#dceeff" opacity="0.54"/><circle cx="56.3" cy="149.7" r="1.42" fill="#dceeff" opacity="0.59"/><circle cx="1043.1" cy="74.5" r="1.33" fill="#dceeff" opacity="0.61"/><circle cx="694.3" cy="104.7" r="1.51" fill="#dceeff" opacity="0.82"/><circle cx="569.4" cy="148.8" r="0.57" fill="#dceeff" opacity="0.67"/><circle cx="773.6" cy="218.5" r="1.49" fill="#dceeff" opacity="0.42"/><circle cx="465.2" cy="149.8" r="0.53" fill="#dceeff" opacity="0.53"/><circle cx="208.3" cy="32.8" r="0.57" fill="#dceeff" opacity="0.71"/><circle cx="162.6" cy="60.5" r="0.97" fill="#dceeff" opacity="0.77"/><circle cx="105.1" cy="103.2" r="1.16" fill="#dceeff" opacity="0.78"><animate attributeName="opacity" values="0.2;1;0.2" dur="3.2s" begin="0.7s" repeatCount="indefinite"/></circle><circle cx="976.8" cy="191.2" r="0.83" fill="#dceeff" opacity="0.5"/><circle cx="433.3" cy="195.4" r="1.65" fill="#dceeff" opacity="0.34"/><circle cx="217.9" cy="57.2" r="0.78" fill="#dceeff" opacity="0.54"/><circle cx="705.2" cy="63.7" r="0.5" fill="#dceeff" opacity="0.5"/><circle cx="445.7" cy="128.1" r="1.64" fill="#dceeff" opacity="0.66"/><circle cx="618.3" cy="138.9" r="1.31" fill="#dceeff" opacity="0.28"/><circle cx="1071.4" cy="173.4" r="1.55" fill="#dceeff" opacity="0.73"/><circle cx="473.0" cy="92.6" r="0.62" fill="#dceeff" opacity="0.63"/><circle cx="83.5" cy="22.3" r="0.75" fill="#dceeff" opacity="0.35"/><circle cx="411.3" cy="19.1" r="0.5" fill="#dceeff" opacity="0.34"/><circle cx="129.7" cy="85.1" r="0.53" fill="#dceeff" opacity="0.77"/><circle cx="734.6" cy="39.5" r="0.8" fill="#dceeff" opacity="0.46"/><circle cx="439.7" cy="34.0" r="1.52" fill="#dceeff" opacity="0.85"><animate attributeName="opacity" values="0.21;1;0.21" dur="4.0s" begin="0.8s" repeatCount="indefinite"/></circle><circle cx="559.9" cy="110.6" r="0.6" fill="#dceeff" opacity="0.31"/><circle cx="414.3" cy="64.1" r="1.49" fill="#dceeff" opacity="0.35"/><circle cx="37.3" cy="209.6" r="1.13" fill="#dceeff" opacity="0.34"/><circle cx="650.9" cy="13.7" r="1.13" fill="#dceeff" opacity="0.84"/><circle cx="1028.7" cy="155.6" r="0.81" fill="#dceeff" opacity="0.47"/><circle cx="207.1" cy="171.7" r="1.14" fill="#dceeff" opacity="0.72"/><circle cx="399.0" cy="55.3" r="1.47" fill="#dceeff" opacity="0.84"><animate attributeName="opacity" values="0.21;1;0.21" dur="3.5s" begin="0.4s" repeatCount="indefinite"/></circle><circle cx="1016.1" cy="178.9" r="1.48" fill="#dceeff" opacity="0.69"/><circle cx="277.6" cy="117.7" r="0.93" fill="#dceeff" opacity="0.27"/><circle cx="43.0" cy="67.2" r="0.81" fill="#dceeff" opacity="0.67"/><circle cx="1138.7" cy="102.8" r="1.62" fill="#dceeff" opacity="0.84"><animate attributeName="opacity" values="0.21;1;0.21" dur="4.8s" begin="1.1s" repeatCount="indefinite"/></circle><circle cx="1136.9" cy="85.3" r="0.76" fill="#dceeff" opacity="0.39"/><circle cx="242.1" cy="51.3" r="1.25" fill="#dceeff" opacity="0.79"/><circle cx="1001.7" cy="109.6" r="1.28" fill="#dceeff" opacity="0.73"/><circle cx="110.0" cy="148.0" r="1.59" fill="#dceeff" opacity="0.72"/><circle cx="895.2" cy="109.3" r="0.71" fill="#dceeff" opacity="0.72"><animate attributeName="opacity" values="0.18;1;0.18" dur="3.6s" begin="1.8s" repeatCount="indefinite"/></circle><circle cx="402.4" cy="177.8" r="1.67" fill="#dceeff" opacity="0.49"/><circle cx="483.6" cy="208.7" r="1.37" fill="#dceeff" opacity="0.35"/><circle cx="159.9" cy="40.0" r="1.59" fill="#dceeff" opacity="0.73"/><circle cx="812.9" cy="98.6" r="1.88" fill="#8fc8ff" opacity="0.5" filter="url(#softGlow)"/><circle cx="650.9" cy="13.7" r="2.13" fill="#8fc8ff" opacity="0.5" filter="url(#softGlow)"/><circle cx="402.4" cy="177.8" r="2.67" fill="#8fc8ff" opacity="0.5" filter="url(#softGlow)"/><circle cx="37.3" cy="209.6" r="2.13" fill="#8fc8ff" opacity="0.5" filter="url(#softGlow)"/><circle cx="473.0" cy="92.6" r="1.62" fill="#8fc8ff" opacity="0.5" filter="url(#softGlow)"/><line x1="80" y1="40" x2="180" y2="70" stroke="url(#shootLine)" stroke-width="2" stroke-linecap="round" opacity="0">
      <animate attributeName="x1" values="60;950;60" dur="7s" begin="1.2s" repeatCount="indefinite"/>
      <animate attributeName="x2" values="160;1050;160" dur="7s" begin="1.2s" repeatCount="indefinite"/>
      <animate attributeName="y1" values="30;127;30" dur="7s" begin="1.2s" repeatCount="indefinite"/>
      <animate attributeName="y2" values="60;150;60" dur="7s" begin="1.2s" repeatCount="indefinite"/>
      <animate attributeName="opacity" values="0;0.9;0" dur="7s" begin="1.2s" repeatCount="indefinite"/>
    </line><text x="600.0" y="150" font-family="Trebuchet MS, Segoe UI, Arial, sans-serif" font-size="64" font-weight="800" fill="#4fc3f7" opacity="0.35" text-anchor="middle" letter-spacing="2" filter="url(#softGlow)">Onins</text><text x="600.0" y="150" font-family="Trebuchet MS, Segoe UI, Arial, sans-serif" font-size="64" font-weight="800" fill="#eaf6ff" text-anchor="middle" letter-spacing="2">Onins</text><text x="600.0" y="176" font-family="Trebuchet MS, Segoe UI, Arial, sans-serif" font-size="15" fill="#4fc3f7" text-anchor="middle" opacity="0.7">&#10022;</text><text x="600.0" y="205" font-family="Trebuchet MS, Segoe UI, Arial, sans-serif" font-size="19" fill="#84a3cc" text-anchor="middle" letter-spacing="1">AI Engineer  //  Full-Stack Developer</text><path d="M0,250 C144,226 324,256 504,232 C660,212 816,254 960,230 C1080,214 1152,246 1200,228 L1200,300 L0,300 Z" fill="url(#horizon)"/></svg>
